<svg width="14.999908" height="15.000000" viewBox="0 0 14.9999 15" fill="none" xmlns="http://www.w3.org/2000/svg" xmlns:xlink="http://www.w3.org/1999/xlink">
	<desc>
			Created with Pixso.
	</desc>
	<defs/>
	<path id="Vector" d="M14.58 4.16L13.23 5.51C13.09 5.64 12.87 5.64 12.73 5.51L9.48 2.25C9.34 2.12 9.34 1.89 9.48 1.76L10.83 0.41C11.38 -0.14 12.27 -0.14 12.82 0.41L14.58 2.17C15.13 2.71 15.13 3.61 14.58 4.16ZM8.32 2.92L0.63 10.61L0.01 14.17C-0.08 14.65 0.34 15.07 0.82 14.98L4.38 14.36L12.07 6.67C12.21 6.53 12.21 6.31 12.07 6.17L8.82 2.92C8.68 2.78 8.46 2.78 8.32 2.92ZM3.63 9.95C3.47 9.79 3.47 9.53 3.63 9.37L8.14 4.86C8.3 4.7 8.56 4.7 8.72 4.86C8.88 5.02 8.88 5.28 8.72 5.44L4.21 9.95C4.05 10.11 3.79 10.11 3.63 9.95ZM2.57 12.42L3.98 12.42L3.98 13.48L2.09 13.81L1.18 12.9L1.51 11.01L2.57 11.01L2.57 12.42Z" fill="#FFFFFF" fill-opacity="1.000000" fill-rule="nonzero"/>
</svg>
