<svg width="30.000000" height="30.000000" viewBox="0 0 30 30" fill="none" xmlns="http://www.w3.org/2000/svg" xmlns:xlink="http://www.w3.org/1999/xlink">
	<desc>
			Created with Pixso.
	</desc>
	<defs/>
	<rect id="Frame 1" rx="14.500000" width="29.000000" height="29.000000" transform="translate(0.500000 0.500000)" fill="#FFFFFF" fill-opacity="1.000000"/>
	<path id="Vector" d="M22.01 7.5C20.59 7.6 10.62 8.61 9.92 15.92C9.84 16.7 9.79 17.49 9.76 18.27L14.66 13.04C14.83 12.85 15.11 12.85 15.28 13.04C15.46 13.22 15.46 13.52 15.28 13.7L8.17 21.29C7.91 21.57 7.91 22.01 8.17 22.29C8.43 22.56 8.85 22.56 9.1 22.29L10.67 20.62C11.82 20.61 12.98 20.54 14.12 20.4C15.59 20.24 16.78 19.63 17.75 18.75L14.99 18.75L19.01 17.31C19.32 16.88 19.6 16.41 19.85 15.93L17.62 15.93L20.54 14.37C21.69 11.39 21.96 8.26 22.01 7.5Z" fill="#000000" fill-opacity="1.000000" fill-rule="nonzero"/>
	<rect id="Frame 1" rx="14.500000" width="29.000000" height="29.000000" transform="translate(0.500000 0.500000)" stroke="#000000" stroke-opacity="1.000000" stroke-width="1.000000"/>
</svg>
