<svg width="24.000000" height="15.000000" viewBox="0 0 24 15" fill="none" xmlns="http://www.w3.org/2000/svg" xmlns:xlink="http://www.w3.org/1999/xlink">
	<desc>
			Created with Pixso.
	</desc>
	<defs/>
	<path id="vk" d="M23.44 1.01C23.61 0.42 23.44 0 22.65 0L20.03 0C19.36 0 19.05 0.37 18.88 0.78C18.88 0.78 17.55 4.2 15.66 6.42C15.05 7.07 14.77 7.27 14.43 7.27C14.27 7.27 14.02 7.07 14.02 6.48L14.02 1.01C14.02 0.31 13.83 0 13.28 0L9.15 0C8.73 0 8.48 0.32 8.48 0.63C8.48 1.3 9.43 1.45 9.52 3.32L9.52 7.39C9.52 8.28 9.37 8.45 9.04 8.45C8.15 8.45 5.98 5.01 4.69 1.07C4.44 0.31 4.19 0 3.52 0L0.9 0C0.14 0 0 0.37 0 0.78C0 1.51 0.88 5.14 4.14 9.94C6.31 13.22 9.37 15 12.15 15C13.82 15 14.02 14.6 14.02 13.92L14.02 11.44C14.02 10.65 14.18 10.49 14.71 10.49C15.1 10.49 15.77 10.7 17.33 12.28C19.11 14.15 19.4 14.99 20.4 14.99L23.03 14.99C23.78 14.99 24.15 14.6 23.93 13.82C23.7 13.05 22.85 11.92 21.72 10.58C21.11 9.82 20.19 9 19.91 8.59C19.52 8.06 19.63 7.83 19.91 7.36C19.91 7.36 23.11 2.62 23.44 1.01Z" fill="#FFFFFF" fill-opacity="1.000000" fill-rule="nonzero"/>
</svg>
